<?xml version="1.0" standalone="no"?>
<!DOCTYPE svg PUBLIC "-//W3C//DTD SVG 20010904//EN"
 "http://www.w3.org/TR/2001/REC-SVG-20010904/DTD/svg10.dtd">
<svg version="1.0" xmlns="http://www.w3.org/2000/svg"
 width="700.000000pt" height="700.000000pt" viewBox="0 0 700.000000 700.000000"
 preserveAspectRatio="xMidYMid meet">
<metadata>
Created by potrace 1.14, written by Peter Selinger 2001-2017
</metadata>
<g transform="translate(0.000000,700.000000) scale(0.100000,-0.100000)"
fill="#000000" stroke="none">
<path d="M3278 6996 c-1 -2 -42 -6 -89 -10 -47 -4 -95 -8 -105 -10 -10 -2 -46
-7 -79 -12 -33 -4 -62 -8 -65 -9 -3 0 -27 -4 -55 -9 -27 -4 -106 -21 -175 -37
-69 -17 -135 -32 -147 -35 -13 -2 -78 -23 -145 -45 -860 -287 -1557 -866
-1991 -1654 -36 -66 -87 -167 -112 -225 -25 -58 -50 -114 -55 -125 -45 -93
-150 -427 -176 -560 -2 -11 -10 -54 -19 -95 -29 -147 -35 -193 -52 -370 -15
-162 -8 -592 12 -711 2 -13 6 -46 9 -74 21 -184 108 -544 165 -680 5 -11 25
-65 46 -120 63 -166 251 -535 312 -610 4 -6 29 -42 54 -80 169 -257 438 -545
719 -770 92 -74 370 -265 386 -265 4 0 15 -6 23 -14 31 -27 311 -165 449 -220
266 -107 553 -185 821 -222 25 -3 57 -8 71 -10 163 -25 682 -25 842 1 13 2 46
7 73 10 74 11 87 13 120 19 17 4 46 9 65 12 51 8 213 48 300 74 253 74 522
187 734 309 49 28 90 51 92 51 2 0 58 36 124 81 261 175 485 369 680 588 36
41 70 79 76 85 29 30 185 242 240 326 120 184 241 412 315 597 66 163 147 422
175 558 16 75 54 300 60 350 4 33 9 76 11 95 8 70 10 517 3 595 -15 153 -21
210 -25 225 -2 8 -7 35 -10 60 -16 123 -79 381 -131 536 -104 312 -226 561
-410 839 -427 647 -1060 1133 -1800 1383 -109 37 -335 98 -439 118 -22 4 -42
8 -45 9 -3 0 -30 5 -60 9 -30 4 -64 10 -75 12 -11 2 -49 6 -85 9 -36 4 -76 9
-90 12 -27 5 -536 14 -542 9z m424 -660 c59 -4 116 -9 126 -11 11 -2 43 -6 73
-10 289 -35 633 -146 919 -297 590 -312 1058 -824 1305 -1428 26 -63 51 -124
56 -135 43 -103 117 -411 134 -555 3 -25 7 -55 10 -68 21 -110 22 -548 1 -657
-2 -11 -7 -42 -10 -70 -9 -66 -16 -107 -21 -125 -2 -8 -7 -31 -10 -50 -28
-174 -129 -474 -231 -680 -52 -107 -154 -284 -165 -288 -5 -2 -9 -8 -9 -13 0
-5 -23 -42 -52 -81 -370 -521 -887 -898 -1483 -1083 -143 -44 -345 -89 -448
-100 -32 -4 -68 -8 -80 -10 -109 -21 -512 -21 -637 0 -14 2 -47 6 -75 9 -234
24 -617 141 -858 263 -979 491 -1590 1470 -1589 2546 0 466 101 892 307 1292
171 334 362 581 656 849 206 189 541 394 829 509 135 54 358 121 463 141 88
16 148 26 192 32 28 3 59 8 69 10 11 2 72 6 135 10 64 4 117 7 118 8 4 3 181
-2 275 -8z"/>
<path d="M3021 4618 c-68 -12 -116 -49 -153 -118 l-23 -45 0 -1033 c-1 -767 2
-1042 11 -1068 37 -108 156 -171 264 -140 49 14 1536 1004 1588 1057 65 66 75
176 25 257 -26 43 -98 93 -768 540 -407 271 -758 504 -780 517 -52 31 -110 43
-164 33z"/>
</g>
</svg>
